<?xml version="1.0" standalone="no"?>
<!DOCTYPE svg PUBLIC "-//W3C//DTD SVG 20010904//EN"
 "http://www.w3.org/TR/2001/REC-SVG-20010904/DTD/svg10.dtd">
<svg version="1.0" xmlns="http://www.w3.org/2000/svg"
 width="1600.000000pt" height="1600.000000pt" viewBox="0 0 1600.000000 1600.000000"
 preserveAspectRatio="xMidYMid meet">
<metadata>
Created by potrace 1.11, written by Peter Selinger 2001-2013
</metadata>
<g transform="translate(0.000000,1600.000000) scale(0.100000,-0.100000)"
fill="#000000" stroke="none">
<path d="M11480 12894 c-31 -10 -100 -45 -105 -54 -17 -27 -117 -58 -309 -94
-39 -8 -71 -24 -93 -47 -19 -21 -63 -107 -68 -134 -1 -5 -3 -13 -5 -17 -1 -5
-4 -12 -5 -18 -1 -5 -4 -12 -5 -15 -4 -7 -5 -15 -14 -57 -9 -42 -13 -43 -71
-26 -22 6 -42 12 -45 13 -3 1 -39 12 -80 24 -41 13 -80 24 -87 25 -7 1 -15 5
-19 9 -4 3 -25 -4 -48 -15 -22 -12 -44 -21 -48 -20 -5 1 -8 -3 -8 -8 0 -6 -6
-10 -14 -10 -15 0 -47 -29 -94 -85 l-33 -40 6 -100 c3 -55 8 -126 10 -157 3
-31 1 -59 -3 -61 -4 -3 -18 0 -32 6 -14 6 -33 11 -42 12 -10 2 -20 4 -23 5 -3
1 -8 3 -12 4 -5 1 -12 4 -18 8 -9 6 -74 12 -85 8 -3 -1 -16 -4 -30 -6 -14 -3
-26 -9 -28 -14 -2 -6 -8 -10 -12 -10 -19 0 -80 -72 -115 -135 -20 -36 -40 -65
-44 -65 -4 0 -15 -14 -25 -31 -12 -21 -24 -29 -36 -26 -9 2 -24 1 -32 -4 -7
-4 -20 -4 -28 1 -7 4 -23 4 -36 0 -12 -5 -25 -6 -28 -3 -3 3 -65 7 -138 9
-252 5 -461 14 -466 18 -2 3 -13 1 -23 -5 -11 -5 -19 -6 -19 -2 0 4 -37 9 -83
9 -120 3 -472 13 -474 14 -9 5 -62 3 -76 -3 -9 -3 -17 -3 -17 1 0 4 -39 8 -88
9 -230 4 -401 11 -410 17 -6 3 -13 2 -17 -4 -4 -6 -11 -8 -16 -4 -10 6 -197
15 -371 17 -54 1 -98 6 -98 10 0 4 -8 3 -19 -2 -10 -6 -21 -7 -25 -4 -5 5
-130 11 -376 16 -36 1 -68 7 -72 12 -5 6 -8 5 -8 -3 0 -7 -4 -11 -9 -7 -8 4
-208 14 -373 18 -21 1 -38 5 -38 9 0 5 -9 4 -20 -2 -11 -6 -20 -7 -20 -3 0 4
-44 9 -98 9 -53 1 -160 4 -237 8 -133 6 -240 10 -505 21 -63 2 -153 7 -200 10
-47 2 -137 7 -200 10 -63 3 -155 7 -205 10 -49 3 -133 7 -185 10 -52 3 -151 8
-220 11 -69 2 -154 7 -190 9 -36 3 -123 7 -195 11 -142 6 -217 10 -370 19
-131 7 -261 14 -415 21 -69 3 -159 7 -200 10 -41 2 -81 4 -87 4 -7 0 -19 0
-25 0 -7 0 -58 2 -113 5 -55 2 -144 7 -197 9 -53 2 -101 7 -107 10 -5 4 -12 2
-16 -4 -4 -6 -11 -7 -17 -4 -6 4 -47 8 -92 10 -44 2 -130 6 -191 9 -60 3 -164
7 -230 10 -66 3 -160 8 -210 10 -49 2 -148 7 -220 10 -169 7 -290 13 -290 15
0 0 -59 2 -131 4 l-132 3 -13 -41 c-7 -22 -13 -43 -14 -46 -1 -3 -7 -25 -14
-50 -7 -25 -15 -52 -16 -60 -2 -8 -4 -16 -5 -17 -2 -2 -3 -6 -4 -10 -9 -34
-28 -101 -32 -113 -3 -8 -4 -15 -3 -15 1 0 -6 -18 -15 -40 -10 -22 -17 -41
-17 -42 1 -2 1 -4 0 -5 0 -2 -2 -11 -4 -20 -3 -19 -41 -148 -55 -188 -5 -14
-18 -59 -30 -100 -12 -41 -26 -86 -31 -100 -5 -14 -12 -36 -15 -50 -8 -37 -37
-139 -52 -180 -3 -8 -4 -19 -3 -24 1 -4 -3 -13 -8 -20 -5 -6 -12 -29 -16 -51
-4 -22 -11 -44 -15 -50 -4 -5 -11 -26 -16 -45 -11 -49 -11 -49 -14 -55 -1 -3
-4 -9 -5 -15 -1 -5 -3 -11 -5 -12 -1 -2 -3 -10 -5 -19 -1 -8 -14 -53 -28 -100
-14 -46 -39 -129 -56 -184 -16 -55 -36 -121 -44 -147 -8 -27 -13 -48 -10 -48
3 0 0 -7 -7 -15 -7 -8 -10 -15 -6 -15 3 0 0 -17 -8 -37 -17 -46 -47 -142 -51
-165 -2 -9 -19 -68 -38 -130 -20 -62 -47 -153 -62 -203 -15 -49 -29 -99 -33
-110 -3 -11 -7 -22 -7 -25 -4 -15 -27 -97 -30 -108 -3 -7 -5 -14 -5 -17 0 -3
-8 -24 -16 -47 -9 -24 -17 -51 -20 -60 -2 -10 -6 -26 -8 -35 -2 -10 -21 -72
-41 -138 -19 -66 -47 -158 -61 -205 -14 -47 -30 -101 -37 -120 -6 -19 -12 -41
-13 -47 -1 -7 -11 -41 -22 -75 -11 -35 -23 -76 -27 -93 -9 -34 -10 -35 -18
-55 -3 -8 -24 -80 -47 -160 -22 -80 -44 -152 -49 -161 -11 -20 -5 -94 13 -157
3 -9 7 -35 11 -56 3 -22 8 -42 11 -45 3 -3 87 -6 187 -7 169 -1 321 -7 477
-19 36 -3 108 -7 160 -10 99 -5 206 -12 325 -20 133 -9 320 -18 367 -19 27 -1
48 -3 48 -6 0 -3 37 -6 83 -6 45 -1 127 -5 182 -8 142 -9 270 -15 420 -21 72
-3 144 -6 160 -7 17 -1 38 1 48 5 9 3 17 3 17 -1 0 -4 69 -8 153 -9 83 -1 202
-4 262 -6 61 -3 120 -6 133 -6 13 -1 20 -5 17 -11 -4 -6 -9 -45 -11 -88 -3
-42 -6 -88 -7 -102 -2 -23 1 -25 38 -24 37 1 103 9 150 18 11 3 23 5 28 5 4 1
7 8 7 16 0 8 4 15 9 15 12 0 20 49 10 56 -16 10 -9 26 9 22 22 -6 46 44 30 60
-6 6 -8 14 -5 20 7 10 292 8 342 -3 30 -6 81 -13 141 -19 17 -1 36 -6 42 -10
7 -4 12 -3 12 3 0 6 11 7 28 2 15 -5 42 -7 60 -6 28 2 33 -1 29 -17 -4 -15 1
-18 36 -19 64 -2 91 2 106 14 14 12 21 14 91 25 53 8 437 7 745 -3 121 -4 277
-8 347 -9 71 0 128 -5 128 -10 0 -5 6 -4 13 0 6 5 23 9 37 7 14 -1 151 -4 305
-7 154 -4 309 -9 345 -11 36 -3 135 -7 220 -10 85 -3 220 -7 300 -10 518 -18
714 -23 843 -24 l77 -1 0 -45 0 -45 155 2 c85 2 155 5 155 8 0 3 62 6 138 6
283 3 522 11 528 17 4 3 14 2 24 -3 10 -5 20 -7 23 -3 3 3 60 7 126 8 66 2
137 6 158 10 21 3 155 8 299 10 l260 4 0 -366 c-1 -200 1 -368 4 -373 3 -4 41
-1 85 6 44 7 85 13 92 13 8 1 10 -14 6 -47 -3 -27 2 -72 10 -105 16 -59 13
-86 -15 -143 -8 -16 -6 -28 7 -47 16 -25 16 -27 -10 -61 l-27 -35 20 -53 c11
-30 16 -63 13 -77 -5 -18 1 -31 21 -52 17 -17 28 -38 28 -56 0 -23 8 -31 38
-45 20 -10 63 -33 95 -52 l58 -35 9 24 c13 33 18 31 14 -4 -3 -24 3 -31 41
-53 33 -18 61 -47 105 -111 33 -48 60 -90 60 -93 0 -3 11 -17 25 -32 l26 -27
-4 37 c-2 22 1 39 7 42 7 3 7 5 -1 5 -21 2 -15 21 6 21 11 0 21 4 23 10 2 5 8
-1 14 -15 9 -18 9 -22 -1 -18 -7 2 -16 0 -20 -6 -3 -7 2 -11 14 -11 12 0 21
-5 21 -11 0 -5 5 -7 10 -4 18 11 10 -10 -10 -28 -24 -20 -25 -33 -5 -41 30
-11 50 11 82 94 l10 25 5 -27 c3 -15 1 -25 -3 -22 -5 3 -9 1 -9 -5 0 -5 3 -11
8 -14 4 -2 1 -2 -7 0 -11 3 -12 1 -1 -12 8 -10 9 -15 1 -15 -6 0 -11 -7 -11
-15 0 -17 25 -20 35 -5 4 6 12 7 22 1 18 -9 34 2 95 63 21 22 38 47 38 57 0
10 8 20 18 23 21 7 67 111 65 148 0 17 5 29 16 33 9 3 25 20 35 39 15 28 16
38 6 56 -8 14 -10 39 -6 64 4 23 8 58 10 79 3 21 9 44 15 51 8 9 8 22 1 40 -6
17 -6 26 0 26 6 0 10 -6 10 -14 0 -8 7 -16 15 -20 8 -3 15 -13 15 -21 0 -9 -4
-14 -8 -11 -14 8 -33 -36 -27 -63 2 -13 0 -33 -6 -44 -8 -14 -8 -22 1 -27 7
-5 10 -15 7 -24 -9 -22 5 -20 31 4 29 27 40 25 14 -2 -26 -29 -40 -78 -21 -78
11 0 11 -3 -1 -10 -10 -6 -11 -10 -2 -10 6 0 12 -5 12 -11 0 -5 -4 -7 -10 -4
-5 3 -10 2 -10 -4 0 -10 -39 -27 -53 -23 -5 1 -6 -2 -3 -7 4 -5 2 -12 -4 -16
-5 -3 -10 -23 -10 -43 0 -45 -23 -84 -85 -145 -45 -45 -48 -52 -55 -132 -1
-11 -4 -15 -6 -8 -3 7 -12 9 -20 6 -7 -3 -12 -9 -9 -13 3 -5 -4 -11 -15 -15
-11 -3 -32 -23 -48 -43 -15 -20 -35 -46 -45 -57 -10 -11 -16 -28 -15 -39 3
-18 14 -23 61 -28 9 -1 17 -6 17 -10 0 -11 56 -38 63 -31 4 3 14 0 23 -8 10
-8 18 -12 18 -10 1 2 23 1 49 -3 l48 -7 -6 -96 c-3 -53 -10 -104 -16 -115 -21
-40 -19 -98 6 -146 13 -26 27 -72 30 -102 3 -30 7 -77 10 -105 16 -160 19
-194 20 -232 0 -24 2 -43 5 -43 3 0 6 -30 8 -67 1 -37 4 -69 7 -71 2 -2 20 5
39 17 19 12 41 21 48 20 7 -1 21 1 30 5 16 7 16 10 -5 26 -17 14 -19 21 -10
30 8 9 8 20 -3 46 -12 29 -12 33 0 28 8 -3 16 -14 19 -25 3 -10 10 -19 16 -19
7 0 5 10 -5 25 -9 14 -21 25 -26 25 -5 0 -24 15 -42 33 -18 18 -39 36 -48 39
-8 4 -18 18 -20 32 -5 26 5 35 17 16 4 -6 10 -8 14 -6 10 7 24 -4 56 -47 18
-25 31 -34 35 -26 9 14 17 2 24 -35 6 -33 9 -37 29 -40 8 -1 22 -8 31 -16 19
-15 35 -5 41 26 2 11 4 19 5 19 3 0 10 59 10 82 0 12 -12 48 -26 80 -26 56
-39 159 -21 170 4 2 7 17 7 34 0 16 5 29 11 29 5 0 8 4 5 8 -2 4 -1 14 5 22 6
11 9 8 9 -12 0 -15 -4 -29 -9 -32 -4 -3 -7 -17 -6 -31 2 -14 -1 -27 -6 -31
-13 -8 -11 -98 3 -112 17 -17 33 -15 18 3 -17 20 -8 19 17 -2 20 -19 32 -42
39 -82 4 -18 1 -22 -11 -17 -11 4 -15 2 -13 -6 3 -7 11 -13 18 -13 7 0 14 -7
16 -15 2 -8 6 -27 9 -42 4 -21 1 -28 -10 -28 -8 0 -17 -11 -21 -25 -6 -26 -24
-35 -24 -12 0 8 -3 7 -10 -3 -15 -24 5 -35 36 -21 20 9 29 9 34 1 4 -7 10 -10
13 -8 4 2 22 -17 54 -61 1 -2 14 -5 28 -6 19 -3 25 1 25 16 0 18 15 24 48 20
6 -1 12 3 12 9 0 5 5 10 11 10 5 0 8 -4 5 -8 -2 -4 8 -7 22 -6 15 1 32 -2 37
-6 27 -22 48 0 35 35 -5 14 -4 31 5 48 10 19 10 28 2 36 -9 9 -8 14 3 21 22
14 33 12 26 -5 -3 -8 -1 -15 4 -15 6 0 11 12 11 28 1 21 3 22 6 6 2 -12 15
-27 29 -34 14 -8 24 -22 24 -36 0 -31 10 -55 21 -48 5 3 6 10 3 16 -4 6 -9 28
-11 49 -4 33 -2 38 11 33 9 -3 13 -11 9 -18 -4 -7 -3 -8 5 -1 6 6 12 21 14 35
2 21 9 26 40 28 l38 3 -17 32 c-9 18 -17 48 -18 67 -1 33 -29 90 -44 90 -4 0
-8 8 -9 17 -5 52 -9 58 -35 58 -34 1 -43 11 -27 30 7 8 10 22 6 30 -14 38 24
3 86 -79 l22 -29 9 24 c24 58 28 84 20 124 -12 52 -6 75 18 75 19 0 59 -64 59
-95 0 -8 12 -20 26 -25 34 -13 36 -13 26 8 -5 9 -7 23 -5 30 6 17 -16 71 -39
96 -10 11 -18 29 -18 41 0 11 -4 25 -9 31 -15 14 -18 69 -4 69 6 0 15 4 20 8
4 5 -3 7 -16 5 -28 -4 -35 18 -19 63 7 22 7 33 -2 44 -10 12 -10 15 0 15 7 0
10 8 8 18 -3 9 1 31 9 47 12 29 13 27 8 -23 -4 -40 -3 -52 6 -46 9 5 10 2 5
-12 -5 -10 -9 -25 -9 -31 0 -7 -5 -13 -10 -13 -5 0 1 -11 14 -24 12 -13 24
-36 26 -52 3 -16 9 -34 15 -41 6 -7 8 -21 5 -32 -3 -14 1 -18 17 -17 26 1 46
19 46 40 0 14 4 14 38 -2 50 -23 57 -31 58 -73 1 -20 8 -50 17 -67 8 -18 11
-32 6 -32 -13 0 -11 -16 4 -32 7 -7 14 -17 14 -21 1 -4 6 -21 12 -37 11 -33
24 -41 20 -12 -4 25 20 64 36 58 9 -3 12 0 8 10 -4 10 -9 12 -18 4 -9 -8 -14
-6 -19 6 -9 23 -7 36 3 30 25 -16 -23 111 -51 134 -10 8 -20 25 -22 36 -6 31
36 25 45 -7 4 -13 7 -18 8 -10 1 10 4 11 15 2 11 -9 15 -9 19 1 4 10 9 8 17
-4 17 -28 58 -22 89 12 26 29 45 32 35 6 -3 -7 2 -18 10 -25 11 -10 19 -9 35
1 17 10 20 19 15 43 -9 41 -17 49 -68 70 -28 12 -42 23 -39 32 3 7 10 10 16 6
6 -4 8 4 3 23 -4 16 -3 24 2 17 4 -7 19 -10 33 -8 17 3 34 -2 48 -14 15 -13
38 -19 83 -20 34 -1 67 -6 73 -12 7 -9 4 -10 -12 -6 -20 4 -21 3 -11 -19 10
-21 23 -24 23 -5 0 3 10 17 23 31 24 26 29 59 10 78 -10 10 -10 15 1 21 11 7
10 13 -4 35 -17 26 -17 27 1 41 17 13 21 12 42 -11 33 -38 38 -23 7 25 -14 23
-23 46 -20 51 4 6 2 10 -4 10 -5 0 -8 11 -5 24 2 14 -2 31 -9 38 -27 26 -40
59 -28 71 8 8 11 8 11 -1 0 -18 18 -14 23 6 3 11 5 7 6 -10 1 -29 27 -61 45
-55 12 4 46 -34 46 -52 0 -6 -7 -8 -15 -5 -21 8 -19 2 7 -20 18 -15 20 -16 15
-2 -4 9 -2 16 3 16 6 0 10 -6 10 -13 0 -7 11 -24 24 -39 14 -14 22 -29 19 -32
-4 -3 0 -6 8 -6 16 0 23 36 8 45 -5 4 -5 14 1 26 9 15 7 21 -5 25 -9 4 -22 19
-31 35 -13 25 -13 29 0 29 8 0 17 -4 21 -10 8 -13 35 -1 35 17 0 8 -13 27 -30
41 -16 15 -30 31 -30 37 0 18 -57 68 -69 60 -29 -17 -44 106 -17 132 5 4 6
-11 2 -34 -4 -28 -2 -43 5 -43 6 0 8 -10 5 -22 -3 -13 -3 -17 0 -11 4 9 19 2
49 -23 41 -33 44 -34 40 -12 -3 12 -9 24 -15 26 -6 2 -8 8 -4 13 3 5 0 9 -5 9
-6 0 -11 5 -11 10 0 6 10 8 23 5 15 -4 31 1 45 13 22 19 29 33 15 31 -20 -3
-34 2 -28 10 3 5 -2 16 -10 24 -19 19 -19 28 -1 21 8 -3 16 -14 19 -25 7 -26
37 -25 32 1 -2 11 -7 25 -11 31 -5 8 -1 8 14 0 29 -16 36 -30 21 -47 -13 -16
-13 -16 16 -33 19 -11 19 -12 -2 -6 -21 6 -28 -2 -24 -27 0 -5 -4 -8 -9 -8
-24 0 10 -36 36 -38 15 -1 31 -7 35 -13 10 -17 46 -1 54 24 8 22 8 22 12 1 2
-12 20 -38 38 -59 29 -31 37 -35 50 -25 21 17 21 -7 -1 -31 -12 -13 -12 -19
-3 -25 7 -4 10 -3 6 3 -3 5 4 20 17 34 20 21 21 27 10 48 -15 29 -8 47 12 30
8 -6 17 -9 21 -5 3 3 1 6 -6 6 -7 0 -9 5 -6 11 4 6 -2 13 -13 16 -11 3 -23 11
-26 19 -4 10 -14 12 -32 8 -18 -5 -25 -3 -21 3 4 6 0 13 -8 17 -20 7 -19 33 0
33 9 0 14 -6 11 -14 -6 -16 8 -17 35 -3 13 8 19 7 19 0 0 -6 4 -9 8 -6 5 3 23
-4 41 -15 l32 -19 -3 27 c-2 23 1 29 20 31 18 3 21 6 12 17 -9 11 -7 12 12 8
23 -4 23 -4 3 14 -23 20 -26 46 -7 65 14 14 75 21 67 7 -4 -5 -1 -9 6 -9 6 0
9 8 6 20 -4 17 -2 18 14 10 27 -15 11 -43 -31 -55 -42 -11 -50 -18 -40 -30 9
-11 8 -22 -3 -45 -16 -32 -4 -43 21 -18 6 6 17 13 24 14 7 2 24 6 38 9 14 4 7
-2 -15 -13 -54 -25 -75 -48 -75 -79 0 -18 4 -24 15 -19 8 3 15 1 15 -5 0 -6 5
-7 12 -3 7 4 8 3 4 -4 -4 -6 -7 -40 -8 -75 -1 -61 -2 -64 -32 -77 -17 -8 -41
-15 -54 -16 -13 -2 -37 -17 -54 -33 -18 -17 -35 -31 -39 -31 -4 0 -9 -7 -13
-15 -4 -12 3 -15 34 -15 31 0 40 4 40 17 0 9 3 14 6 11 9 -9 46 31 39 42 -9
14 9 12 23 -2 7 -7 8 -17 2 -29 -14 -25 8 -36 25 -13 14 18 14 18 15 -3 0 -13
-6 -23 -12 -24 -7 0 -3 -5 10 -11 27 -13 24 -29 -9 -45 -13 -7 -24 -17 -24
-22 0 -5 -3 -13 -7 -17 -14 -13 -9 -26 7 -20 8 3 21 9 29 12 8 3 16 -3 19 -15
3 -12 1 -19 -4 -15 -5 3 -9 0 -9 -6 0 -6 -5 -8 -11 -5 -6 4 -13 -2 -16 -14 -3
-11 -9 -18 -14 -15 -5 3 -9 0 -9 -5 0 -6 -9 -11 -20 -11 -24 0 -70 -21 -70
-32 0 -19 3 -23 13 -20 5 2 14 -3 18 -10 12 -18 11 -30 -1 -23 -5 3 -10 2 -10
-4 0 -5 4 -11 8 -13 5 -1 12 -15 16 -31 5 -20 2 -29 -9 -33 -8 -4 -15 -16 -15
-28 0 -12 -6 -28 -12 -35 -10 -11 -10 -13 0 -7 6 4 12 3 12 -3 0 -5 9 -8 20
-6 21 4 27 -9 9 -21 -6 -3 -8 -17 -4 -31 6 -24 5 -24 -10 -9 -10 9 -14 23 -11
31 3 9 0 15 -9 15 -18 0 -28 -17 -15 -25 5 -3 15 -26 21 -50 6 -25 14 -43 18
-41 3 2 6 -12 6 -32 -1 -26 -9 -46 -28 -66 -15 -16 -27 -36 -28 -45 -3 -62 -7
-89 -14 -106 -8 -18 -7 -19 8 -6 17 14 23 5 9 -15 -11 -16 -42 -25 -42 -12 0
7 -5 6 -15 -2 -9 -7 -13 -15 -10 -18 3 -3 -2 -13 -11 -23 -14 -15 -14 -22 -3
-48 7 -16 17 -27 21 -25 4 3 18 -2 32 -11 16 -11 26 -13 31 -6 3 6 4 11 0 11
-9 0 25 60 52 91 24 27 62 45 108 52 11 1 26 6 33 10 6 5 12 4 12 -2 0 -10 8
-10 45 5 34 13 65 13 65 1 0 -8 3 -9 8 -1 4 6 15 13 25 17 9 4 17 10 16 14 -1
4 -1 15 0 23 1 13 3 13 10 0 6 -8 8 -17 5 -21 -2 -4 15 -5 38 -2 24 2 45 9 46
14 2 5 9 6 15 2 9 -5 9 -3 1 8 -11 15 -11 55 0 66 3 3 6 -7 6 -23 l0 -29 20
33 c11 18 20 39 20 46 0 8 6 16 14 19 11 4 8 -8 -9 -40 -30 -55 -33 -67 -20
-71 6 -2 15 -8 21 -13 22 -18 54 -19 54 -1 0 12 -3 13 -11 5 -9 -9 -17 -6 -33
9 -15 14 -17 22 -8 25 6 3 10 9 6 14 -3 5 1 11 8 14 9 4 13 20 12 43 -2 46 11
73 31 66 8 -4 13 -10 10 -14 -3 -4 2 -24 10 -44 9 -20 12 -42 8 -49 -4 -7 6
-4 22 6 l30 18 -28 -25 c-15 -14 -27 -29 -26 -33 3 -20 -2 -34 -11 -28 -5 3
-10 1 -10 -5 0 -6 8 -9 18 -6 9 2 37 8 62 11 25 4 63 16 85 27 38 18 101 88
117 130 10 25 -9 61 -28 54 -7 -3 -13 -2 -13 2 3 21 -3 24 -15 6 -8 -10 -17
-16 -21 -12 -4 4 6 19 21 34 16 15 23 24 17 20 -18 -10 -16 16 3 40 8 10 13
14 10 7 -4 -6 -2 -14 4 -18 6 -4 7 -12 3 -18 -4 -7 6 -4 21 7 17 11 25 13 20
5 -15 -25 -16 -59 -1 -59 19 0 33 18 41 52 3 15 13 33 21 41 8 8 11 17 8 21
-3 3 2 9 11 12 10 4 13 10 8 13 -14 9 -2 61 14 61 7 0 17 6 21 13 4 6 19 18
32 25 20 12 25 12 32 0 6 -9 9 -9 9 -1 0 6 -4 15 -10 18 -16 10 -12 35 6 35 8
0 12 4 9 10 -3 6 1 7 9 4 9 -3 13 -11 9 -17 -3 -5 1 -15 9 -21 8 -6 18 -22 22
-36 4 -14 4 -20 -1 -14 -15 21 -81 12 -105 -13 -19 -21 -21 -28 -11 -53 6 -17
7 -28 2 -24 -5 3 -9 1 -9 -5 0 -5 -10 -8 -22 -6 -15 3 -18 1 -11 -6 12 -12 85
-1 77 12 -3 5 2 9 11 9 10 0 13 -5 9 -12 -5 -8 -2 -9 10 -5 10 4 20 7 22 7 2
0 4 5 4 10 0 6 -5 9 -11 8 -6 -2 -12 11 -14 28 -2 28 0 30 30 32 22 2 35 -3
39 -13 5 -14 -6 -20 -28 -16 -5 1 -4 -5 4 -13 8 -11 9 -16 1 -16 -6 0 -11 -7
-11 -15 0 -16 9 -19 34 -9 9 3 13 10 10 15 -3 5 2 6 10 3 20 -8 72 24 84 52 9
18 7 23 -9 27 -12 3 -17 11 -13 20 3 9 12 13 21 10 20 -8 44 23 36 45 -3 10
-2 13 4 7 9 -12 56 -18 49 -7 -6 11 46 6 74 -7 14 -6 37 -21 52 -33 22 -17 30
-19 41 -9 8 6 20 10 25 9 6 -2 17 6 25 17 11 14 28 20 61 21 27 1 46 -3 46 -9
0 -6 3 -7 6 -4 4 4 2 12 -4 19 -17 21 -10 68 11 68 9 0 17 -4 17 -9 0 -10 19
-9 37 2 7 5 20 0 32 -12 10 -10 27 -21 38 -23 24 -4 25 -44 1 -40 -10 2 -18
-2 -18 -9 0 -8 -4 -8 -13 -1 -10 9 -16 4 -26 -23 -7 -19 -17 -35 -22 -35 -13
0 -11 18 4 23 6 3 2 6 -10 6 -20 1 -22 -3 -18 -50 1 -28 5 -52 7 -54 10 -11
48 28 48 49 0 24 36 73 51 68 5 -1 9 3 9 10 0 6 3 9 6 5 3 -3 23 3 42 14 20
10 42 19 48 19 6 0 17 7 24 15 7 8 27 19 44 23 17 5 32 15 32 23 1 8 2 20 3
27 0 6 6 12 11 12 6 0 9 -3 9 -7 -3 -18 4 -20 49 -11 75 15 108 17 139 9 27
-7 150 24 163 41 3 4 17 10 30 12 14 2 26 5 28 7 4 3 21 6 38 8 11 1 14 7 10
19 -5 15 -4 15 7 2 14 -17 37 -24 37 -11 0 9 43 7 59 -4 6 -3 11 -2 11 3 0 5
17 12 38 15 20 3 47 8 58 11 32 7 97 18 112 19 6 0 12 4 12 9 0 9 29 6 48 -5
6 -5 12 -5 12 -2 0 7 20 -9 61 -48 16 -15 29 -24 29 -20 0 4 5 0 11 -9 5 -10
15 -18 21 -18 6 0 4 8 -5 18 -10 10 -17 24 -17 31 0 19 28 43 35 31 4 -7 12
-7 25 0 13 7 21 6 30 -5 13 -15 5 -20 -27 -16 -7 1 -13 -2 -14 -6 0 -4 -2 -17
-3 -28 -4 -32 38 -31 59 1 9 14 14 28 11 31 -3 3 4 17 14 31 21 26 26 67 11
91 -6 9 -4 23 7 39 16 24 15 24 -6 18 -20 -7 -21 -5 -12 18 5 14 6 26 2 26 -4
0 -1 4 7 9 16 10 6 31 -15 31 -8 0 -14 4 -14 9 0 5 -15 8 -32 7 -28 -2 -33 -6
-30 -27 2 -21 1 -22 -8 -6 -6 9 -8 22 -5 27 3 6 -3 10 -13 10 -11 0 -23 7 -26
16 -9 23 -8 24 15 24 15 0 19 -5 15 -15 -3 -9 0 -15 8 -15 19 0 29 32 14 42
-22 14 -53 9 -76 -12 -27 -25 -48 -25 -55 0 -3 11 -1 18 3 15 7 -4 22 43 25
77 1 19 55 37 55 18 0 -7 8 -6 23 1 32 17 37 30 21 53 -13 21 -9 70 6 61 4 -3
13 1 19 9 18 22 -12 41 -33 21 -9 -9 -16 -12 -16 -6 0 6 9 19 21 29 18 18 19
21 4 36 -18 18 -12 38 9 30 8 -3 12 -14 9 -25 -3 -10 0 -19 6 -19 6 0 11 -7
11 -15 0 -17 16 -20 25 -5 3 5 17 9 30 8 17 -2 24 -9 27 -30 4 -28 -5 -37 -17
-18 -11 17 -23 11 -28 -16 -2 -14 2 -31 10 -40 17 -16 37 -9 29 12 -3 7 -1 16
4 19 16 10 48 -70 44 -111 -2 -20 0 -42 3 -48 4 -6 6 -23 4 -38 -1 -16 2 -28
9 -28 11 0 10 23 -6 220 -5 63 -13 133 -19 175 -1 11 -3 45 -5 75 -1 30 -4 50
-6 44 -3 -7 -14 -10 -24 -7 -15 4 -20 0 -20 -15 0 -28 -16 -37 -23 -12 -3 11
-1 20 4 20 17 0 9 23 -18 48 -18 17 -21 23 -10 19 27 -10 55 12 49 39 -2 13
-9 24 -14 24 -5 0 -6 5 -3 10 6 9 -10 14 -42 13 -7 -1 -10 4 -7 11 3 6 -1 3
-9 -6 -13 -16 -15 -16 -25 6 -8 19 -8 27 3 36 8 6 19 9 25 5 5 -3 10 1 10 9 0
20 16 21 23 2 4 -9 -2 -17 -14 -21 -25 -8 -15 -25 16 -25 19 0 23 4 20 21 -3
12 -1 18 3 15 4 -4 7 -11 8 -14 4 -34 18 -82 23 -82 9 0 -5 107 -18 143 -6 15
-7 27 -4 27 4 0 2 5 -5 12 -7 7 -12 24 -12 38 0 15 -3 30 -7 33 -3 4 -8 19 -9
33 -2 15 -6 34 -10 43 -4 9 -8 23 -10 31 -5 24 -25 103 -31 120 -3 8 -25 74
-50 145 -24 72 -54 150 -66 175 -12 25 -21 48 -19 53 1 4 -3 7 -9 7 -5 0 -8 4
-4 9 3 5 1 12 -4 16 -6 3 -26 38 -46 78 -41 82 -41 83 -112 195 -29 45 -79
109 -112 142 -58 58 -189 150 -214 150 -7 0 -17 4 -22 9 -13 12 -138 56 -217
77 -141 36 -231 36 -316 -3 -64 -30 -104 -92 -68 -106 10 -4 12 0 9 14 -4 13
0 19 11 19 11 0 14 -5 10 -12 -4 -7 -3 -8 4 -4 17 10 32 -2 26 -19 -4 -8 -10
-12 -15 -9 -5 3 -6 -2 -3 -10 3 -8 13 -18 22 -21 19 -6 62 -69 62 -89 0 -7 20
-33 45 -58 35 -36 51 -46 75 -44 31 2 65 28 82 61 5 11 -4 5 -20 -13 -19 -20
-33 -29 -37 -22 -5 8 -11 8 -20 0 -11 -9 -17 -5 -30 20 -15 29 -15 36 -1 76
19 57 71 106 128 121 49 13 80 9 118 -17 14 -10 45 -29 70 -43 48 -27 99 -67
84 -67 -5 0 1 -7 13 -15 13 -9 29 -30 38 -48 21 -45 55 -147 49 -147 -3 0 3
-13 13 -30 9 -16 21 -30 25 -30 4 0 8 -5 8 -11 0 -6 -9 -8 -21 -4 -16 5 -19 4
-14 -6 5 -7 10 -71 12 -143 2 -72 7 -142 12 -156 4 -14 9 -52 11 -85 3 -75 8
-147 10 -160 1 -5 8 3 15 20 7 16 11 38 10 47 -2 10 8 31 23 46 l27 27 -38 3
c-32 3 -38 6 -35 24 2 12 9 23 17 26 8 3 11 0 7 -7 -12 -18 21 -24 51 -9 15 8
45 13 66 12 25 -2 40 2 44 12 9 25 23 4 23 -35 0 -49 -11 -59 -26 -24 -10 23
-13 24 -13 8 -1 -11 7 -33 18 -48 31 -48 80 -71 64 -31 -5 15 8 19 21 7 4 -4
21 -8 37 -8 26 -1 28 1 14 11 -10 8 -12 14 -6 19 6 3 18 0 26 -8 13 -13 13
-17 -1 -28 -9 -7 -23 -14 -31 -15 -21 -3 -29 -14 -17 -22 6 -4 13 -15 17 -24
8 -23 -11 -23 -41 -2 -21 14 -62 12 -62 -4 1 -23 21 -34 53 -30 20 2 33 0 30
-5 -3 -4 1 -8 8 -6 28 3 38 -1 33 -16 -4 -8 -9 -13 -14 -10 -8 5 -47 -75 -42
-88 1 -5 5 -30 8 -55 2 -26 7 -60 10 -77 3 -16 6 -65 7 -107 1 -43 5 -78 8
-78 11 0 6 -30 -5 -30 -6 0 -2 -7 9 -16 19 -14 19 -15 -3 -20 -12 -4 -19 -10
-16 -15 3 -5 0 -9 -7 -9 -8 0 -8 -4 1 -15 11 -13 10 -15 -1 -10 -8 3 -26 -12
-43 -35 -17 -22 -35 -40 -42 -40 -7 0 -14 -3 -16 -8 -6 -14 -156 -82 -181 -82
-14 0 -29 -4 -32 -10 -3 -5 -16 -10 -29 -10 -12 0 -26 -3 -30 -7 -4 -5 -11 -8
-14 -9 -12 -1 -86 -34 -116 -51 -16 -9 -26 -11 -22 -4 11 17 -68 18 -90 0 -6
-5 -14 -6 -17 -2 -4 3 -7 2 -7 -3 0 -5 -15 -10 -32 -10 -18 -1 -53 -9 -77 -18
-33 -13 -46 -14 -51 -5 -4 6 -9 7 -11 3 -2 -5 -39 -26 -81 -46 -43 -21 -78
-42 -78 -48 0 -5 -6 -10 -14 -10 -18 0 -47 -40 -39 -53 3 -5 10 -4 16 2 6 6
15 11 20 11 5 0 1 -7 -7 -16 -9 -8 -21 -12 -26 -9 -14 9 -60 -22 -60 -40 0 -7
-5 -17 -12 -21 -7 -5 -8 -3 -3 6 6 9 4 11 -4 5 -7 -4 -11 -15 -8 -25 3 -13 0
-17 -9 -13 -8 3 -14 10 -14 15 0 11 -51 2 -60 -10 -3 -4 -27 -7 -53 -8 -28 0
-52 -6 -56 -13 -6 -10 -10 -9 -14 3 -4 10 -14 13 -29 10 -13 -3 -27 -5 -33 -5
-5 1 -27 2 -48 4 -27 1 -41 8 -48 22 -10 19 -9 19 4 2 10 -12 17 -14 22 -7 3
5 11 8 16 5 5 -4 9 2 9 11 0 14 -3 15 -11 7 -9 -9 -19 -8 -41 3 -19 10 -27 11
-26 3 2 -6 -4 -14 -12 -16 -11 -3 -12 -2 -2 5 10 7 8 15 -9 37 -20 25 -21 27
-3 18 10 -5 25 -8 32 -7 6 1 26 2 43 3 21 1 28 5 23 14 -6 9 -4 9 8 -1 11 -9
23 -10 43 -2 29 11 45 6 45 -15 0 -7 7 -16 16 -19 25 -9 27 -7 13 11 -13 15
-12 15 9 4 20 -11 26 -10 42 8 15 18 19 19 24 6 6 -17 32 -20 41 -5 3 6 -5 14
-19 19 -13 6 -29 17 -34 26 -7 14 -32 18 -148 21 -76 2 -166 6 -199 9 -101 10
-258 45 -297 66 -21 11 -38 18 -38 14 0 -3 -10 0 -22 7 -27 14 -45 19 -75 22
-12 0 -21 5 -20 10 1 5 -11 13 -27 18 -21 8 -31 7 -38 -3 -7 -10 -8 -9 -4 6 4
15 -4 28 -29 48 -33 26 -39 27 -70 17 -22 -7 -53 -9 -83 -4 -96 15 -148 11
-176 -15 -14 -13 -28 -32 -32 -43 -3 -10 -10 -18 -15 -18 -19 0 37 70 69 85
25 13 47 15 100 9 85 -10 110 -9 147 5 28 12 28 13 9 24 -59 35 -94 60 -94 67
0 4 -16 25 -36 46 -64 70 -93 172 -57 199 8 6 15 17 16 25 2 8 6 21 10 28 5 7
11 24 13 39 3 15 9 34 14 42 5 10 3 26 -6 43 -8 16 -16 58 -18 96 -3 56 -10
77 -39 125 -39 63 -40 84 -7 117 17 17 19 24 10 35 -6 8 -18 11 -26 8 -8 -3
-14 0 -14 7 0 6 -4 9 -9 6 -5 -3 -40 23 -77 58 -77 73 -104 79 -151 34 -21
-19 -37 -25 -62 -23 -19 2 -38 9 -42 16 -4 8 -15 23 -23 34 -14 18 -15 18 -10
1 6 -15 3 -17 -14 -12 -11 4 -30 9 -41 11 -22 4 -91 53 -91 64 0 4 -8 16 -18
27 -10 10 -28 36 -41 57 -12 20 -28 37 -35 37 -25 0 -68 42 -63 61 5 18 -18
59 -33 59 -5 0 -10 -8 -12 -17 -3 -14 -5 -13 -10 6 -5 19 1 31 29 57 20 19 38
32 41 29 3 -3 14 2 24 12 17 15 18 15 18 -9 0 -14 9 -33 19 -42 18 -17 20 -17
41 4 22 22 24 65 3 65 -22 0 -26 15 -8 35 10 11 15 20 10 20 -4 0 -3 6 2 13 5
6 9 33 8 60 0 33 3 44 10 35 13 -16 32 -20 56 -13 15 5 16 9 6 19 -6 8 -17 12
-23 9 -13 -5 -40 25 -31 34 4 3 3 11 -1 18 -4 6 1 2 11 -8 17 -19 17 -19 17 2
0 12 4 21 9 21 5 0 8 -8 7 -17 0 -10 6 -18 14 -18 8 0 23 -15 33 -32 9 -18 23
-33 30 -33 8 0 9 3 1 8 -32 21 -52 109 -45 195 0 9 8 17 16 17 21 0 29 24 15
49 -6 12 -30 41 -53 65 -55 58 -65 70 -79 101 -6 14 -15 25 -20 25 -4 0 -8 7
-8 16 0 14 -2 15 -17 3 -12 -10 -15 -11 -9 -1 8 13 -47 134 -70 153 -19 16
-11 -16 9 -39 9 -10 17 -22 17 -26 0 -4 10 -22 22 -39 13 -20 16 -27 6 -19 -9
7 -24 28 -33 47 -9 19 -22 35 -30 35 -8 0 -15 7 -15 16 0 8 -4 12 -10 9 -5 -3
-7 0 -4 8 6 16 -22 31 -39 20 -8 -4 -7 -1 1 9 17 22 6 44 -30 59 -24 10 -31
10 -38 -1 -5 -7 -20 -14 -34 -15 -19 0 -22 2 -14 13 6 7 16 11 23 8 6 -2 16 4
22 13 8 13 20 16 40 14 29 -5 30 -3 29 34 -1 21 -5 41 -9 44 -11 8 -16 43 -7
49 5 3 10 18 11 34 4 32 -15 47 -25 21 -3 -9 -2 -13 4 -10 6 3 10 1 10 -4 0
-6 -5 -11 -11 -11 -5 0 -7 -6 -3 -12 4 -7 3 -9 -1 -5 -17 15 -22 62 -11 89 6
13 2 19 -17 23 -13 4 -30 17 -37 30 -7 13 -22 26 -34 29 -23 6 -76 80 -76 107
0 9 -6 22 -14 28 -7 6 -11 22 -9 35 3 16 -1 25 -12 30 -14 5 -16 2 -12 -14 3
-11 1 -20 -4 -20 -5 0 -7 -11 -5 -25 5 -25 -7 -34 -19 -15 -9 15 -35 12 -29
-3 5 -15 -30 -17 -43 -2 -5 4 -3 5 4 2 6 -4 15 5 22 23 8 25 7 32 -4 37 -8 3
-12 10 -8 16 3 6 1 7 -5 3 -6 -4 -19 0 -29 9 -10 8 -22 16 -28 17 -5 1 -16 8
-23 15 -7 7 -22 13 -31 13 -10 0 -35 7 -54 15 -20 8 -53 15 -73 15 -29 0 -42
7 -70 38 -18 20 -44 57 -56 82 -13 25 -27 48 -31 51 -5 3 -9 23 -10 43 -2 30
-5 36 -21 34 -24 -4 -34 -28 -11 -28 12 0 15 -7 12 -29 -3 -18 4 -48 18 -78
20 -40 21 -49 9 -56 -8 -4 -19 -5 -26 -1 -6 4 -8 3 -4 -4 4 -6 25 -9 51 -6 44
4 45 3 39 -21 -6 -25 10 -36 19 -12 4 9 8 8 16 -3 14 -20 14 -33 -1 -27 -7 2
-21 -3 -31 -11 -16 -14 -17 -14 -12 0 5 13 2 15 -14 11 -12 -3 -22 0 -22 6 -1
6 -2 16 -3 23 -1 15 -23 22 -31 9 -3 -6 -2 -11 4 -11 6 0 13 -16 17 -35 3 -19
10 -35 14 -35 13 0 -1 -54 -18 -67 -22 -18 -75 43 -61 70 9 17 6 18 -37 15
-37 -2 -48 -7 -50 -21 -1 -11 -4 -20 -6 -21 -42 -27 -59 -36 -54 -27 4 6 2 11
-5 11 -6 0 -9 -8 -6 -20 6 -23 -5 -26 -22 -6 -15 18 14 50 40 43 23 -6 31 4
18 23 -8 12 -12 12 -16 2 -2 -6 -8 -10 -13 -7 -4 2 -17 -4 -28 -13 -12 -10
-39 -27 -61 -37 -22 -10 -38 -22 -35 -26 10 -16 -19 -9 -31 7 -10 15 -12 14
-9 -7 1 -13 3 -28 3 -32 1 -4 7 -7 14 -6 30 4 45 -2 50 -20 3 -14 0 -17 -13
-14 -12 3 -21 -4 -28 -26 -6 -17 -17 -31 -24 -31 -9 0 -9 3 -2 8 22 15 23 40
2 59 -11 10 -23 17 -26 15 -4 -2 -8 2 -11 9 -2 7 1 9 8 5 7 -4 9 -2 5 7 -3 8
0 18 6 22 14 8 -32 46 -59 48 -10 0 -17 7 -14 13 12 31 88 15 78 -16 -4 -11 0
-17 12 -17 36 0 45 41 11 51 l-23 7 24 10 c14 5 31 7 38 5 7 -3 13 2 14 12 0
9 2 29 4 44 2 15 -3 32 -10 38 -11 9 -12 7 -8 -9 4 -15 -2 -24 -23 -33 -16 -7
-38 -21 -48 -30 -14 -13 -23 -15 -32 -7 -7 6 -18 8 -23 5 -19 -12 -59 6 -65
28 -3 14 -21 30 -45 40 -61 28 -81 86 -29 86 31 0 48 29 35 57 -12 27 -28 25
-42 -5 -13 -29 -35 -37 -35 -12 0 10 -5 22 -12 26 -7 4 -8 3 -4 -4 4 -7 1 -12
-8 -12 -8 0 -18 5 -21 10 -16 26 -22 -4 -8 -39 14 -37 14 -41 -1 -57 -9 -9
-20 -13 -24 -9 -4 4 -1 10 6 12 17 6 15 18 -5 39 -21 21 -25 42 -10 51 7 4 2
9 -13 13 -14 3 -26 14 -28 25 -3 20 -3 20 12 1 15 -19 16 -18 22 13 4 21 10
28 14 20 10 -15 43 -3 38 14 -3 6 -14 16 -25 21 -11 5 -26 18 -33 29 -14 23 0
37 38 37 32 0 62 18 62 37 0 12 7 14 30 10 30 -7 40 5 18 20 -16 10 -22 10
-81 2 -32 -4 -44 -2 -37 5 5 5 20 10 33 11 21 0 33 20 12 20 -6 0 -24 10 -39
23 -36 28 -44 28 -56 0 -8 -18 -9 -16 -3 12 3 19 5 44 4 55 -1 11 -3 25 -3 32
-1 6 -12 9 -26 7 -22 -4 -24 -3 -12 10 7 9 16 14 20 11 9 -5 23 20 25 48 1 9
-3 18 -9 19 -6 0 -15 2 -21 3 -5 2 -22 3 -36 4 -19 1 -31 11 -45 36 -10 19
-24 35 -31 35 -7 0 -13 5 -13 10 0 6 -6 10 -12 9 -26 -3 -39 1 -33 11 3 6 1
10 -6 10 -7 0 -10 2 -7 5 3 3 18 -1 34 -10 35 -18 61 -19 68 -2 3 6 3 0 0 -15
-4 -17 -1 -29 9 -35 9 -4 16 -12 16 -17 1 -17 55 -15 76 2 19 16 19 16 6 -1
-8 -9 -12 -19 -9 -22 2 -2 30 -6 61 -9 50 -4 59 -2 72 17 8 12 15 30 15 40 0
10 9 21 20 24 11 3 17 10 13 16 -3 6 -1 7 5 3 14 -8 5 -33 -14 -40 -9 -3 -13
-10 -10 -15 10 -16 -45 -61 -73 -59 -36 3 -51 -8 -46 -34 3 -12 -1 -25 -7 -29
-8 -5 -6 -15 6 -34 15 -22 23 -26 46 -22 24 5 27 3 23 -13 -4 -13 8 -28 43
-53 49 -36 67 -34 56 5 -4 17 0 19 34 16 34 -3 39 0 40 18 1 22 -10 25 -33 11
-24 -15 -39 49 -19 82 3 5 0 14 -8 20 -14 12 -29 1 -38 -28 -3 -11 -7 -11 -21
3 -9 9 -14 23 -10 32 3 8 8 12 11 10 3 -3 10 1 16 10 9 11 18 13 36 6 19 -7
28 -5 42 12 10 12 17 15 18 9 0 -7 -4 -13 -10 -13 -5 0 -10 -9 -10 -21 0 -11
-4 -29 -10 -39 -8 -15 -6 -20 13 -26 33 -12 47 -13 47 -5 0 4 12 8 26 9 20 1
25 -2 20 -13 -3 -8 -2 -15 3 -15 16 0 19 13 9 39 -19 50 -19 73 -1 87 16 12
15 13 -13 14 -23 0 -34 6 -42 25 -7 14 -12 33 -12 41 0 8 -4 13 -9 9 -23 -14
-22 74 1 102 6 7 8 13 4 13 -9 0 23 38 67 81 35 33 36 37 18 42 -15 3 -22 -2
-31 -24 -19 -45 -34 -53 -70 -38 -16 8 -30 17 -30 21 0 8 29 -1 47 -15 9 -6
16 -1 24 17 7 14 15 26 19 26 4 0 7 7 7 15 0 8 -7 15 -14 15 -8 0 -11 -5 -7
-12 4 -7 3 -8 -4 -4 -16 10 -15 14 9 26 15 8 24 8 34 0 10 -9 19 -8 37 1 29
15 68 56 60 63 -3 3 5 6 17 6 19 0 23 -4 19 -25 -3 -13 -1 -22 3 -19 5 3 9 12
9 19 0 23 59 77 86 80 14 1 31 -3 37 -9 7 -6 17 -12 22 -13 6 -1 17 -4 25 -7
18 -7 40 6 44 25 5 31 36 76 62 89 38 21 80 62 88 86 4 12 17 34 31 50 18 21
21 31 13 41 -8 10 -7 13 3 13 11 0 11 2 -1 10 -10 6 -11 10 -2 10 24 0 12 15
-16 18 -73 8 -77 8 -80 -15 -2 -13 -8 -23 -13 -23 -5 0 -9 -9 -9 -20 0 -11 -7
-23 -15 -26 -8 -4 -12 -10 -9 -15 3 -5 -2 -9 -10 -9 -9 0 -16 -4 -16 -10 0 -5
-7 -10 -16 -10 -11 0 -14 5 -10 16 3 9 6 18 6 20 0 3 6 2 13 -3 6 -4 4 6 -7
21 -14 23 -15 30 -5 36 10 7 10 11 0 24 -11 13 -9 16 13 22 14 3 26 12 26 19
0 7 8 19 17 26 10 8 14 9 10 2 -4 -6 -3 -14 2 -17 12 -8 22 47 10 58 -5 6 -22
-3 -45 -25 l-35 -34 3 30 c2 21 -1 30 -12 30 -8 0 -16 -6 -16 -12 -1 -7 -2
-20 -3 -28 0 -8 -6 -15 -11 -15 -6 0 -9 12 -7 28 5 33 -7 58 -35 73 -18 10
-20 9 -15 -5 4 -9 2 -16 -3 -16 -6 0 -10 7 -10 15 0 8 -9 15 -20 15 -13 0 -18
5 -14 15 4 9 0 15 -7 15 -11 0 -11 3 1 10 13 9 11 13 -10 30 l-25 20 25 -8
c15 -6 27 -20 32 -40 6 -21 13 -29 26 -28 9 2 26 -3 36 -10 13 -9 25 -10 38
-3 20 11 24 -1 7 -18 -9 -9 -3 -11 22 -11 22 1 40 9 52 24 14 19 22 21 41 14
19 -7 28 -4 42 11 19 21 40 26 28 7 -5 -8 0 -9 17 -4 13 4 31 9 39 11 8 2 17
4 20 5 3 1 12 2 20 1 14 -1 33 10 93 52 14 10 43 20 63 22 21 2 43 10 50 19 6
9 14 13 17 9 4 -3 7 1 7 10 0 9 5 17 10 17 15 0 12 -16 -4 -29 -8 -7 -14 -21
-13 -32 2 -23 -2 -22 33 -4 16 8 25 15 21 15 -13 0 23 33 52 48 14 8 37 16 51
19 14 2 27 8 28 14 7 19 23 8 17 -11 -5 -15 -2 -20 14 -20 11 0 21 8 23 17 3
16 4 16 20 0 18 -18 38 -22 38 -8 0 5 10 11 23 15 12 3 30 19 39 36 10 17 21
29 25 28 4 -2 8 0 8 3 0 3 6 13 13 22 9 11 10 17 2 22 -7 4 -8 11 -1 18 5 7
10 15 10 20 1 4 4 7 9 6 4 0 9 10 12 22 5 22 35 35 45 19 3 -5 17 2 32 16 31
29 48 31 33 4 -6 -11 -8 -20 -5 -20 3 0 -1 -10 -9 -21 -10 -15 -12 -28 -6 -45
8 -19 5 -26 -11 -35 -11 -6 -18 -17 -15 -24 2 -7 -2 -16 -11 -19 -12 -5 -13
-9 -3 -21 11 -13 16 -12 41 6 23 16 28 26 23 45 -5 19 -3 23 9 19 9 -4 25 7
42 26 20 25 26 41 23 66 -2 18 0 33 5 33 5 0 3 8 -4 17 -10 11 -10 14 -1 9 7
-4 12 -2 12 4 0 6 13 16 29 21 18 6 28 16 25 24 -3 7 7 22 23 33 31 22 32 22
68 22 18 0 25 5 25 20 0 11 -5 20 -10 20 -7 0 -7 8 1 22 9 17 8 24 -5 34 -16
11 -15 14 9 39 29 32 33 45 8 23 -12 -10 -38 -15 -78 -14 l-60 1 1 70 c1 39 3
75 5 80 2 6 0 11 -4 12 -5 1 -15 10 -22 20 -13 17 -15 17 -44 -5 -17 -12 -31
-18 -31 -12 0 17 -89 -54 -89 -72 -1 -10 -6 -18 -12 -18 -5 0 -7 -4 -4 -10 3
-5 1 -10 -5 -10 -21 0 -53 -40 -57 -70 -2 -24 1 -30 17 -30 11 0 20 -7 20 -16
0 -9 -5 -12 -12 -8 -8 5 -9 2 -4 -12 17 -39 18 -54 6 -54 -7 0 -10 7 -7 15 4
8 2 17 -3 20 -6 4 -10 -1 -10 -10 0 -10 -6 -15 -13 -12 -10 4 -13 -2 -9 -18 2
-12 0 -25 -5 -28 -5 -3 -7 -21 -5 -40 3 -27 8 -34 22 -30 14 4 19 -3 22 -28 5
-33 5 -33 -10 -11 -8 12 -23 22 -33 22 -11 0 -19 5 -19 10 0 15 -36 12 -49 -3
-6 -8 -7 -18 -3 -22 4 -5 2 -5 -5 -1 -9 5 -10 13 -1 32 9 20 17 24 40 20 15
-2 28 0 28 6 0 18 -21 48 -33 48 -18 0 -18 37 0 44 8 4 13 13 9 21 -3 9 0 15
9 15 12 0 12 -5 3 -25 -6 -14 -16 -25 -22 -25 -6 0 -3 -7 6 -16 21 -21 38 -10
32 21 -3 18 0 25 11 25 28 0 28 30 0 56 -14 13 -32 24 -38 22 -17 -2 -83 27
-92 42 -5 8 -11 6 -20 -7 -7 -10 -10 -22 -7 -28 12 -18 13 -57 3 -50 -6 3 -18
2 -28 -3 -11 -7 -21 -5 -31 5 -19 19 -26 10 -12 -16 6 -12 7 -21 2 -21 -5 0
-15 11 -22 25 -7 13 -17 22 -22 19 -16 -10 -57 6 -68 25 -9 17 -7 19 16 17 15
-2 31 -10 36 -19 11 -21 38 -10 35 14 -4 21 -17 38 -17 21 0 -7 -8 -12 -17
-12 -10 0 -14 4 -8 8 20 15 10 52 -19 72 -28 18 -52 18 -42 1 3 -4 -12 -8 -33
-7 -22 0 -37 4 -34 9 2 4 9 5 14 2 5 -4 9 -1 9 4 0 6 3 10 8 9 4 -1 20 2 36 7
16 4 31 4 35 -2 3 -5 21 -15 39 -22 18 -8 45 -23 59 -35 29 -22 53 -29 53 -15
0 5 -24 34 -53 65 -48 51 -66 61 -108 63 -9 1 -26 10 -39 21 -16 14 -37 20
-68 20 -43 0 -45 -1 -26 -16 18 -14 18 -15 -3 -4 -13 6 -23 15 -23 19 0 5 -9
11 -20 14 -12 3 -20 1 -19 -6 4 -33 -2 -49 -16 -43 -8 3 -18 0 -22 -7 -7 -11
-43 -20 -43 -11 0 2 19 13 43 25 35 19 39 23 23 29 -18 6 -18 7 -2 13 15 6 16
10 6 22 -10 12 -7 12 22 2 18 -7 36 -16 40 -22 4 -5 10 -7 13 -4 7 8 -15 61
-30 71 -5 4 -6 8 -1 8 5 0 3 6 -3 14 -14 16 -60 9 -68 -11 -3 -8 -13 -11 -27
-8 -15 5 -17 4 -7 -3 11 -8 10 -12 -7 -21 -15 -8 -23 -7 -32 4 -7 9 -10 18 -6
22 3 3 6 1 6 -5 0 -7 5 -12 12 -12 6 0 9 3 6 6 -4 3 0 17 7 31 8 15 11 31 8
36 -3 6 -1 7 5 3 6 -3 13 -2 17 4 3 5 -5 14 -19 20 -30 11 -35 24 -6 15 14 -5
20 -2 20 10 0 9 -5 13 -10 10 -6 -4 -10 -3 -9 2 4 23 -3 33 -22 33 -17 0 -20
-5 -17 -25 3 -13 1 -22 -3 -19 -5 3 -9 12 -9 21 0 9 -6 13 -15 9 -8 -3 -15 -1
-15 4 0 6 3 10 8 11 4 0 20 3 36 5 17 3 35 -1 45 -11 10 -8 21 -12 24 -8 10
10 8 25 -2 19 -5 -4 -7 3 -4 14 4 15 0 20 -13 20 -15 0 -16 2 -5 9 12 8 12 12
2 25 -7 9 -11 23 -7 31 4 12 2 13 -13 5 -14 -7 -22 -5 -32 8 -12 15 -12 16 1
6 11 -9 22 -7 42 6 16 9 25 20 21 23 -3 4 -2 7 3 7 5 0 10 9 10 19 0 11 -4 17
-8 15 -4 -3 -8 4 -8 15 0 12 5 21 11 21 5 0 8 -4 5 -9 -4 -5 -1 -11 4 -13 6
-2 14 -30 17 -63 6 -57 28 -110 42 -101 4 3 6 -8 5 -22 -1 -15 3 -33 9 -39 6
-9 6 -13 -1 -13 -16 0 -8 -27 16 -53 12 -13 19 -27 15 -31 -5 -4 -3 -7 2 -6
20 4 35 0 35 -11 0 -5 -3 -8 -7 -6 -5 3 -8 -8 -8 -24 0 -36 14 -42 43 -19 28
23 26 34 -26 150 -34 77 -87 232 -84 247 0 2 -4 17 -9 35 -5 18 -12 47 -15 63
-3 17 -7 37 -9 45 -2 8 -4 27 -4 43 -1 15 -6 26 -13 25 -7 -2 -17 7 -23 20
-14 31 -33 28 -27 -4 4 -20 2 -25 -8 -19 -8 5 -11 3 -8 -6 3 -8 11 -13 17 -11
6 1 11 -2 11 -8 0 -13 -13 -13 -27 1 -7 7 -13 7 -17 1 -13 -22 -80 0 -119 39
-22 22 -45 39 -52 39 -19 0 -38 27 -25 35 5 3 10 2 10 -3 0 -16 29 -22 50 -12
11 6 30 15 42 21 12 6 35 13 52 16 17 3 35 9 41 14 15 14 25 10 18 -7 -5 -13
-3 -15 13 -7 10 6 24 8 31 6 9 -3 11 12 8 56 -2 33 -5 64 -7 68 -3 4 -5 43 -6
87 0 43 -2 80 -4 82 -4 3 -28 -9 -97 -49 -36 -20 -54 -14 -106 34 -16 16 -33
29 -37 29 -4 0 -19 11 -33 24 -38 35 -142 57 -195 40z m400 -739 c49 -7 60
-12 60 -25 0 -5 -19 -3 -41 5 -23 8 -50 15 -60 15 -11 0 -19 5 -19 11 0 5 3 8
8 5 4 -2 27 -7 52 -11z m-126 -20 c-4 -8 -11 -12 -16 -9 -6 4 -5 10 3 15 19
12 19 11 13 -6z m86 -169 c0 -2 -8 -10 -17 -17 -16 -13 -17 -12 -4 4 13 16 21
21 21 13z m75 -6 c3 -5 1 -10 -4 -10 -6 0 -11 5 -11 10 0 6 2 10 4 10 3 0 8
-4 11 -10z m182 -52 c-3 -8 -6 -5 -6 6 -1 11 2 17 5 13 3 -3 4 -12 1 -19z
m117 -344 c17 2 23 -1 19 -11 -4 -9 -9 -10 -18 -3 -6 5 -14 8 -16 6 -2 -2 -17
-6 -32 -10 l-29 -7 19 25 c13 18 20 21 26 11 4 -7 18 -12 31 -11z m0 -70 c13
-5 14 -9 5 -20 -16 -19 -24 -17 -26 6 -2 22 -1 23 21 14z m-7 -57 c0 -7 -9
-14 -20 -14 -19 -2 -19 -2 -1 12 11 8 19 15 20 15 0 0 1 -6 1 -13z m-552 -527
c3 -6 -1 -7 -9 -4 -18 7 -21 14 -7 14 6 0 13 -4 16 -10z m-155 -50 c0 -5 -5
-10 -11 -10 -5 0 -7 5 -4 10 3 6 8 10 11 10 2 0 4 -4 4 -10z m-270 -519 c0 -6
-4 -12 -8 -15 -5 -3 -9 1 -9 9 0 8 4 15 9 15 4 0 8 -4 8 -9z m19 -27 c-15 -18
-22 -13 -13 10 3 9 10 13 16 10 5 -3 4 -12 -3 -20z m16 -24 c3 -5 1 -10 -4
-10 -6 0 -11 5 -11 10 0 6 2 10 4 10 3 0 8 -4 11 -10z m-91 -122 c-3 -4 0 -8
7 -8 7 0 10 -3 6 -6 -3 -3 -16 1 -28 9 -22 16 -22 16 -1 14 11 0 18 -5 16 -9z
m-329 -107 c3 -5 2 -12 -3 -15 -5 -3 -9 1 -9 9 0 17 3 19 12 6z m379 -127 c3
-8 2 -12 -4 -9 -6 3 -10 10 -10 16 0 14 7 11 14 -7z m-239 -673 c-8 -14 -32
-14 -40 -1 -3 5 0 7 8 4 8 -3 18 0 22 6 4 6 9 9 12 6 3 -2 2 -9 -2 -15z m-51
-37 c3 -8 2 -12 -4 -9 -6 3 -10 2 -10 -3 0 -15 -28 -23 -36 -10 -4 7 -3 8 4 4
6 -4 17 2 24 14 15 24 14 24 22 4z m851 -69 c6 0 16 4 22 8 9 6 11 3 7 -7 -4
-10 -15 -14 -30 -12 -14 3 -24 0 -24 -7 0 -7 -4 -6 -10 3 -9 15 9 36 20 22 3
-4 10 -7 15 -7z m-295 -105 c0 -5 -5 -10 -11 -10 -5 0 -7 5 -4 10 3 6 8 10 11
10 2 0 4 -4 4 -10z m35 -30 c3 -5 1 -10 -4 -10 -6 0 -11 -9 -11 -20 0 -18 -19
-30 -21 -12 0 4 -2 17 -5 30 -3 17 1 22 15 22 11 0 23 -4 26 -10z m590 -9 c3
-5 0 -13 -6 -17 -7 -4 -9 -3 -5 4 3 5 0 13 -6 15 -9 4 -10 6 -1 6 6 1 14 -3
18 -8z m9 -47 c3 -8 2 -12 -4 -9 -6 3 -10 10 -10 16 0 14 7 11 14 -7z m626
-845 c0 -14 -17 -10 -23 5 -4 10 -1 13 9 9 7 -3 14 -9 14 -14z m-109 -186 c13
-16 12 -17 -3 -4 -10 7 -18 15 -18 17 0 8 8 3 21 -13z m-1941 -1207 c0 -2 -8
-10 -17 -17 -16 -13 -17 -12 -4 4 13 16 21 21 21 13z m5175 -15 c7 -12 -12
-24 -25 -16 -11 7 -4 25 10 25 5 0 11 -4 15 -9z m-5165 -85 c0 -3 -4 -8 -10
-11 -5 -3 -10 -1 -10 4 0 6 5 11 10 11 6 0 10 -2 10 -4z m-20 -30 c0 -2 -8
-10 -17 -17 -16 -13 -17 -12 -4 4 13 16 21 21 21 13z m5170 -41 c17 -20 5 -32
-15 -15 -12 10 -19 10 -27 2 -7 -7 -8 -12 -4 -12 5 0 -3 -15 -18 -34 -14 -19
-26 -40 -26 -46 0 -19 -32 -60 -46 -60 -16 0 -19 16 -4 25 6 3 10 13 10 22 0
19 35 65 43 56 4 -3 10 3 14 13 21 59 49 78 73 49z m-5053 -111 c-3 -4 0 -23
9 -42 13 -32 13 -37 0 -44 -9 -5 -13 -16 -10 -26 5 -14 4 -14 -4 -2 -8 10 -8
18 -1 27 13 15 5 29 -23 44 -19 10 -20 9 -16 -15 4 -21 2 -26 -9 -22 -8 3 -20
6 -26 6 -9 0 -9 2 0 8 7 4 14 19 16 32 3 16 11 24 25 25 12 1 25 5 29 8 3 4 9
7 11 7 3 0 3 -3 -1 -6z m4997 -104 c-10 -4 -21 -6 -24 -3 -8 7 24 22 34 16 5
-4 1 -10 -10 -13z m122 -27 c-7 -8 -11 -9 -37 -12 -8 -1 -8 -6 1 -16 10 -12
10 -15 -3 -15 -18 0 -32 31 -18 39 15 10 66 12 57 4z m-3386 -115 c0 -4 -6 -8
-14 -8 -8 0 -17 4 -20 8 -2 4 4 8 15 8 10 0 19 -4 19 -8z m-56 -13 c-7 -17
-20 -20 -29 -6 -3 5 3 12 12 14 10 3 19 5 20 6 1 0 0 -6 -3 -14z m601 -25
c-10 -11 -20 -18 -23 -16 -5 6 21 35 32 36 5 0 1 -9 -9 -20z m-745 -5 c-7 -9
-15 -13 -19 -10 -3 3 1 10 9 15 21 14 24 12 10 -5z m391 -30 c11 4 19 2 19 -4
0 -6 -5 -11 -11 -11 -5 0 -7 -5 -4 -11 4 -6 -2 -5 -14 3 -12 7 -20 22 -20 33
1 17 2 18 6 2 3 -12 10 -16 24 -12z m309 -5 c-24 -15 -36 -11 -14 4 10 8 21
12 24 10 2 -3 -2 -9 -10 -14z m-750 -60 c0 -5 -2 -10 -4 -10 -3 0 -8 5 -11 10
-3 6 -1 10 4 10 6 0 11 -4 11 -10z m-2017 -35 c-10 -8 -20 -9 -21 -4 -2 5 -9
6 -14 3 -6 -4 -9 -3 -5 2 3 5 17 10 32 10 24 2 25 1 8 -11z m69 -14 c-22 -22
-27 -19 -12 8 6 12 15 19 20 16 5 -3 2 -14 -8 -24z m3737 6 c-2 -1 -13 -9 -24
-17 -19 -14 -19 -14 -6 3 7 9 18 17 24 17 6 0 8 -1 6 -3z m-1489 -29 c0 -6 -6
-5 -15 2 -8 7 -15 14 -15 16 0 2 7 1 15 -2 8 -4 15 -11 15 -16z m3166 -78 c8
0 14 -4 14 -10 0 -5 -5 -9 -12 -7 -20 4 -36 21 -30 32 3 5 7 4 10 -3 2 -7 10
-12 18 -12z m-811 -147 c1 -10 -4 -26 -13 -35 -10 -12 -11 -18 -3 -18 7 0 9
-4 6 -10 -3 -5 -1 -10 5 -10 18 0 6 -23 -12 -26 -11 -1 -15 3 -11 12 8 23 -10
16 -45 -16 -41 -37 -44 -37 -26 0 9 17 20 27 29 24 8 -3 16 3 20 16 4 12 15
30 26 41 11 11 16 25 12 36 -3 10 -3 15 1 11 4 -3 9 -14 11 -25z m875 -13 c13
-8 12 -10 -2 -10 -28 0 -32 -1 -43 -9 -5 -4 -18 -11 -27 -14 -15 -5 -16 -4 -6
13 7 11 21 21 33 23 11 2 22 5 25 5 3 1 12 -3 20 -8z m47 -34 c0 -8 -9 -17
-19 -19 -23 -6 -23 2 0 19 9 7 17 14 18 14 0 0 1 -6 1 -14z m-152 -26 c-3 -5
-1 -10 4 -10 6 0 11 -5 11 -11 0 -8 -5 -8 -15 1 -13 11 -12 30 1 30 3 0 2 -4
-1 -10z m-888 -92 c-1 -16 3 -22 13 -20 12 3 13 1 2 -10 -11 -11 -16 -10 -26
4 -7 10 -17 14 -22 10 -5 -4 0 3 10 16 11 12 21 22 22 22 2 0 3 -10 1 -22z
m-307 -44 c0 -8 -4 -12 -10 -9 -5 3 -10 10 -10 16 0 5 5 9 10 9 6 0 10 -7 10
-16z m-668 -42 c-7 -2 -9 -9 -5 -15 3 -7 3 -9 -2 -5 -4 4 -15 2 -23 -5 -13
-10 -14 -9 -7 3 16 27 30 38 40 32 5 -3 4 -7 -3 -10z m198 -17 c-7 -9 -15 -13
-17 -11 -7 7 7 26 19 26 6 0 6 -6 -2 -15z m600 -15 c0 -5 -4 -10 -10 -10 -5 0
-10 5 -10 10 0 6 5 10 10 10 6 0 10 -4 10 -10z m-398 -52 c-9 -9 -15 -9 -24 1
-11 10 -10 11 5 6 10 -5 17 -2 17 6 0 7 3 9 7 6 4 -4 1 -13 -5 -19z m-609
-108 c-3 -11 -9 -20 -14 -20 -5 0 -9 -7 -9 -15 0 -8 -7 -15 -15 -15 -13 0 -13
3 -3 22 28 49 50 64 41 28z m-197 -248 c-3 -3 -1 -11 4 -17 7 -9 5 -17 -6 -26
-15 -12 -16 -11 -9 11 7 22 6 23 -9 11 -19 -16 -21 -8 -4 18 7 11 16 17 21 14
4 -3 6 -8 3 -11z m-203 -27 c-3 -9 -8 -14 -10 -11 -3 3 -2 9 2 15 9 16 15 13
8 -4z m-143 1 c0 -3 -4 -8 -10 -11 -5 -3 -10 -1 -10 4 0 6 5 11 10 11 6 0 10
-2 10 -4z m-25 -70 c-2 -23 -4 -47 -4 -54 -1 -7 -5 -10 -11 -7 -16 10 -13 102
4 102 10 0 13 -11 11 -41z m55 34 c0 -5 -5 -10 -11 -10 -5 0 -7 5 -4 10 3 6 8
10 11 10 2 0 4 -4 4 -10z m0 -24 c0 -3 -4 -8 -10 -11 -5 -3 -10 -1 -10 4 0 6
5 11 10 11 6 0 10 -2 10 -4z m-1945 -45 c8 -44 12 -51 30 -44 22 8 18 -10 -4
-24 -15 -10 -22 -9 -35 6 -9 10 -13 20 -10 24 3 3 6 22 6 42 0 43 5 42 13 -4z
m141 -80 c-6 -2 -18 -9 -26 -17 -15 -12 -19 -14 -41 -14 -5 0 -7 -6 -3 -12 5
-10 4 -10 -6 -1 -10 10 -11 15 -1 27 8 10 9 16 1 21 -5 3 -10 11 -10 18 0 6 7
1 16 -11 21 -30 42 -28 55 6 10 25 12 26 19 7 4 -12 3 -21 -4 -24z m-351 -110
c-8 -14 -25 -14 -25 0 0 5 5 7 10 4 6 -3 10 -1 10 6 0 7 3 10 6 6 3 -3 3 -10
-1 -16z"/>
<path d="M11940 12481 c0 -10 7 -21 15 -25 8 -3 15 -12 15 -21 0 -8 4 -15 9
-15 15 0 6 45 -13 63 -24 21 -26 21 -26 -2z"/>
<path d="M11860 12425 c-10 -12 -10 -15 4 -15 9 0 16 -4 16 -10 0 -5 4 -10 10
-10 13 0 6 43 -7 47 -5 2 -16 -3 -23 -12z"/>
<path d="M12000 11916 c0 -2 8 -10 18 -17 15 -13 16 -12 3 4 -13 16 -21 21
-21 13z"/>
<path d="M11946 11864 c-9 -24 -7 -28 9 -14 17 14 20 30 6 30 -5 0 -12 -7 -15
-16z"/>
<path d="M13010 11425 c-8 -9 -8 -15 -2 -15 12 0 26 19 19 26 -2 2 -10 -2 -17
-11z"/>
<path d="M12657 11243 c-4 -3 -7 -11 -7 -17 0 -6 5 -5 12 2 6 6 9 14 7 17 -3
3 -9 2 -12 -2z"/>
<path d="M12027 10895 c-7 -15 1 -25 20 -25 7 0 13 6 13 14 0 19 -27 28 -33
11z"/>
<path d="M12087 10805 c-6 -13 1 -25 14 -25 14 0 18 28 4 34 -7 2 -16 -1 -18
-9z"/>
<path d="M11960 10676 c0 -2 8 -10 18 -17 15 -13 16 -12 3 4 -13 16 -21 21
-21 13z"/>
<path d="M11880 10610 c0 -11 -7 -20 -15 -20 -20 0 -35 -40 -21 -56 14 -14 34
-7 40 14 14 51 17 82 7 82 -6 0 -11 -9 -11 -20z"/>
<path d="M11425 10269 c-4 -6 -5 -12 -2 -15 2 -3 7 2 10 11 7 17 1 20 -8 4z"/>
<path d="M11431 10209 c12 -22 25 -24 32 -5 4 9 -3 16 -18 18 -21 4 -23 3 -14
-13z"/>
<path d="M11450 10178 c-2 -5 -3 -12 -4 -17 0 -5 -4 -12 -7 -16 -11 -10 2 -45
16 -45 7 0 15 7 19 15 8 21 38 19 64 -5 20 -19 52 -18 52 1 0 4 -8 5 -17 2
-12 -5 -15 -2 -10 10 9 23 -27 45 -69 43 -18 -1 -36 3 -38 9 -3 5 -5 7 -6 3z"/>
<path d="M11270 9765 c0 -12 83 -105 94 -105 7 0 1 35 -9 52 -6 9 -21 18 -35
20 -17 2 -24 9 -22 19 1 9 -4 19 -13 23 -9 3 -15 0 -15 -9z"/>
<path d="M11615 9640 c-3 -5 -1 -10 4 -10 6 0 11 5 11 10 0 6 -2 10 -4 10 -3
0 -8 -4 -11 -10z"/>
<path d="M11469 9582 c6 -12 16 -24 22 -28 8 -4 8 -1 0 14 -6 12 -16 24 -22
28 -8 4 -8 1 0 -14z"/>
<path d="M11328 9553 c-15 -16 -30 -40 -33 -55 -4 -16 -11 -28 -16 -28 -5 0
-9 -5 -9 -12 0 -19 41 25 62 67 12 22 26 43 32 47 7 5 7 8 0 8 -5 0 -22 -12
-36 -27z"/>
<path d="M11215 9558 c-4 -9 -2 -24 3 -33 12 -23 22 2 12 30 -7 18 -9 18 -15
3z"/>
<path d="M11428 9553 c7 -3 16 -2 19 1 4 3 -2 6 -13 5 -11 0 -14 -3 -6 -6z"/>
<path d="M11470 9515 c0 -8 5 -15 10 -15 6 0 10 7 10 15 0 8 -4 15 -10 15 -5
0 -10 -7 -10 -15z"/>
<path d="M11125 9510 c3 -5 -3 -15 -15 -22 -11 -7 -20 -18 -20 -25 0 -24 25
-12 47 22 22 34 22 35 2 35 -11 0 -17 -4 -14 -10z"/>
<path d="M11566 9443 c-3 -3 -16 -7 -28 -8 -12 -1 -24 -7 -26 -13 -2 -7 2 -10
11 -7 7 3 19 -1 26 -9 11 -13 17 -12 47 6 19 11 34 22 34 25 0 2 -4 1 -10 -2
-5 -3 -18 -1 -28 4 -11 6 -22 7 -26 4z"/>
<path d="M11185 9424 c-20 -15 -12 -17 19 -5 11 4 15 10 10 13 -5 4 -18 0 -29
-8z"/>
<path d="M11447 9404 c-3 -3 -3 -12 0 -20 4 -10 10 -11 24 -3 10 5 19 14 19
19 0 11 -33 14 -43 4z"/>
<path d="M11430 9350 c0 -5 -3 -9 -7 -9 -28 5 -42 -2 -36 -17 6 -15 8 -15 20
2 7 10 13 13 13 5 0 -9 4 -8 15 3 17 17 19 26 5 26 -5 0 -10 -4 -10 -10z"/>
<path d="M11605 9280 c4 -6 11 -8 16 -5 14 9 11 15 -7 15 -8 0 -12 -5 -9 -10z"/>
<path d="M11504 9215 c-10 -8 -14 -14 -9 -15 15 0 40 18 34 24 -3 3 -14 -1
-25 -9z"/>
<path d="M12416 8845 c4 -8 8 -15 10 -15 2 0 4 7 4 15 0 8 -4 15 -10 15 -5 0
-7 -7 -4 -15z"/>
<path d="M12464 8573 c-18 -6 -4 -42 16 -40 11 1 16 7 12 19 -5 21 -13 27 -28
21z"/>
<path d="M12812 7815 c14 -22 27 -47 31 -55 4 -12 6 -12 6 -1 1 11 6 10 23 -5
22 -19 22 -19 8 0 -8 11 -32 38 -54 60 l-39 41 25 -40z"/>
<path d="M12894 7718 c7 -24 -3 -48 -20 -48 -8 0 -14 -4 -14 -10 0 -5 -5 -10
-11 -10 -16 0 -41 -29 -34 -39 3 -5 -5 -11 -17 -14 -22 -3 -22 -4 -4 -12 14
-6 21 -5 24 4 7 22 64 71 83 71 10 0 24 -7 33 -15 9 -9 17 -11 21 -5 3 5 -5
20 -18 32 -13 13 -29 32 -36 43 -9 15 -11 16 -7 3z"/>
<path d="M12783 7667 c-8 -16 -9 -29 -3 -32 12 -8 23 17 18 41 -2 14 -6 12
-15 -9z"/>
<path d="M12735 7460 c3 -5 8 -10 11 -10 2 0 4 5 4 10 0 6 -5 10 -11 10 -5 0
-7 -4 -4 -10z"/>
<path d="M12771 7400 c14 -31 19 -36 19 -24 0 6 -7 19 -16 30 -14 18 -14 18
-3 -6z"/>
<path d="M15895 6524 c-20 -20 -12 -32 10 -14 12 10 15 10 15 -4 0 -9 4 -16 9
-16 10 0 3 38 -9 45 -5 3 -16 -2 -25 -11z"/>
<path d="M15840 6060 c-12 -8 -11 -10 8 -10 12 0 22 5 22 10 0 13 -11 13 -30
0z"/>
<path d="M15841 5999 c-26 -10 -20 -22 14 -33 16 -5 20 -1 21 19 2 27 0 28
-35 14z"/>
<path d="M12811 5958 c-9 -26 -4 -51 10 -43 4 3 6 12 3 19 -3 7 2 21 11 30 15
15 15 16 0 16 -8 0 -19 -10 -24 -22z"/>
<path d="M14230 5950 c0 -5 5 -10 10 -10 6 0 10 5 10 10 0 6 -4 10 -10 10 -5
0 -10 -4 -10 -10z"/>
<path d="M15967 5930 c3 -11 2 -28 -2 -37 -5 -10 -7 -22 -6 -27 1 -5 -3 -22
-8 -37 -5 -16 -7 -29 -3 -29 9 0 -1 -107 -13 -132 -4 -10 -11 -18 -16 -18 -5
0 -9 -4 -9 -10 0 -18 22 -10 27 10 3 11 9 20 12 20 4 0 8 6 8 13 0 6 5 30 10
53 14 55 17 214 5 214 -6 0 -8 -9 -5 -20z"/>
<path d="M12860 5901 c0 -17 18 -21 24 -6 3 9 0 15 -9 15 -8 0 -15 -4 -15 -9z"/>
<path d="M12656 5802 l-19 -27 26 24 c28 26 32 31 20 31 -5 0 -17 -13 -27 -28z"/>
<path d="M12820 5725 c0 -9 -6 -12 -15 -9 -8 4 -15 2 -15 -4 0 -5 9 -12 20
-15 16 -4 20 0 20 19 0 13 -2 24 -5 24 -3 0 -5 -7 -5 -15z"/>
<path d="M12743 5636 c-13 -16 -6 -29 27 -46 17 -9 25 -10 28 -1 2 6 10 11 18
11 8 0 14 5 14 10 0 6 -4 10 -10 10 -5 0 -10 7 -10 15 0 19 -50 20 -67 1z"/>
<path d="M15902 5604 c-7 -7 -13 -17 -15 -21 -1 -5 -7 -7 -14 -7 -6 1 -14 -5
-18 -13 -4 -12 0 -14 16 -10 15 4 19 2 15 -9 -3 -8 -1 -14 4 -14 6 0 10 6 10
13 0 6 7 24 14 39 16 30 8 44 -12 22z"/>
<path d="M15787 5517 c-11 -11 -18 -31 -16 -50 1 -18 -3 -45 -10 -60 -13 -34
-14 -37 -2 -37 10 0 54 135 49 153 -2 9 -8 7 -21 -6z"/>
<path d="M15860 5520 c0 -5 5 -10 11 -10 5 0 7 5 4 10 -3 6 -8 10 -11 10 -2 0
-4 -4 -4 -10z"/>
<path d="M15732 5320 c-12 -12 -22 -24 -22 -28 -1 -4 -2 -43 -3 -87 -2 -65 -8
-92 -30 -138 -16 -31 -33 -57 -38 -57 -5 0 -9 -7 -9 -16 0 -8 -5 -12 -10 -9
-18 11 -23 -25 -6 -44 15 -16 60 -23 70 -10 37 50 43 68 43 136 0 62 8 131 20
183 5 24 12 90 9 90 -1 0 -12 -9 -24 -20z"/>
<path d="M11943 5247 c5 -14 2 -16 -21 -11 -18 4 -23 2 -14 -3 7 -6 10 -16 7
-24 -7 -20 35 -83 59 -87 10 -2 16 0 12 6 -3 5 1 15 9 22 20 17 19 32 -2 28
-13 -2 -17 3 -15 19 2 13 -6 31 -19 44 -16 16 -21 18 -16 6z"/>
<path d="M10726 4817 c3 -10 9 -15 12 -12 3 3 0 11 -7 18 -10 9 -11 8 -5 -6z"/>
<path d="M12603 4807 c-13 -21 -12 -36 4 -48 12 -11 13 -8 7 16 -6 24 -4 27
10 22 9 -4 16 -2 16 2 0 15 -29 21 -37 8z"/>
<path d="M12507 4749 c-9 -6 -17 -20 -17 -32 0 -18 -2 -19 -10 -7 -9 13 -12
12 -25 -5 -35 -47 -56 -63 -76 -58 -15 4 -33 -7 -70 -46 -27 -28 -56 -51 -64
-51 -9 0 -21 -13 -26 -30 -9 -25 -16 -30 -44 -30 -27 0 -34 -4 -37 -22 -2 -13
-10 -23 -18 -23 -22 0 -40 -20 -40 -44 0 -12 -5 -21 -11 -21 -13 0 -4 -47 13
-67 16 -20 59 -4 96 36 19 20 37 35 41 34 32 -11 88 50 61 67 -7 4 -10 16 -8
26 2 14 12 19 33 19 19 0 39 9 53 25 13 14 28 25 32 25 5 0 12 3 16 8 4 4 15
7 25 7 27 0 67 21 74 38 3 8 0 21 -6 28 -11 14 -10 15 11 18 16 2 32 24 26 35
-9 14 -26 14 -26 0 0 -5 5 -7 10 -4 6 3 10 1 10 -5 0 -21 -25 -4 -28 20 -3 18
0 21 13 17 10 -4 14 -3 10 4 -4 5 -2 16 5 24 14 17 0 26 -23 14z"/>
<path d="M12617 4715 c-10 -7 -31 -11 -48 -8 -29 4 -34 -2 -23 -30 7 -19 63
-12 86 11 23 23 10 46 -15 27z"/>
<path d="M10803 4694 c-7 -7 -13 -15 -13 -16 0 -4 53 -10 80 -10 22 0 82 -19
98 -32 7 -6 21 -18 31 -27 17 -15 20 -14 42 9 16 17 18 24 8 20 -12 -5 -21 4
-34 31 -14 31 -21 38 -43 36 -40 -3 -44 -4 -37 -15 3 -6 -1 -7 -9 -4 -9 3 -16
10 -16 15 0 9 -48 5 -58 -5 -2 -3 -12 -1 -21 3 -10 6 -20 4 -28 -5z"/>
<path d="M11012 4546 c5 -35 18 -45 18 -13 0 14 -5 29 -10 32 -7 4 -10 -3 -8
-19z"/>
<path d="M12960 4520 c0 -5 -4 -10 -10 -10 -5 0 -18 -7 -27 -15 -10 -8 -26
-21 -37 -28 -17 -12 -17 -16 -3 -57 15 -44 12 -84 -5 -74 -5 4 -8 17 -5 30 2
13 0 24 -5 24 -5 0 -15 6 -22 13 -12 10 -12 15 2 32 15 18 14 18 -8 -1 -23
-20 -75 -40 -93 -36 -19 5 -43 -19 -56 -54 -17 -48 -34 -65 -66 -67 -14 -1
-29 -7 -33 -14 -4 -6 -20 -16 -35 -22 -15 -6 -26 -14 -25 -18 3 -13 -25 -83
-34 -83 -4 0 -8 -12 -8 -27 0 -27 -55 -93 -76 -93 -13 0 -44 -54 -44 -75 0 -9
-16 -33 -35 -52 -19 -19 -35 -37 -35 -40 0 -2 -7 -11 -15 -20 -8 -8 -13 -19
-10 -24 4 -5 2 -9 -2 -9 -5 0 -17 -16 -27 -34 -18 -34 -76 -68 -76 -45 0 6 -4
8 -8 5 -5 -3 -19 1 -33 8 -51 26 -85 34 -104 24 -10 -6 -34 -11 -53 -12 -20 0
-35 -5 -33 -10 1 -5 -2 -12 -9 -16 -22 -14 129 -190 200 -232 19 -12 44 -30
56 -40 20 -17 21 -17 43 3 14 13 21 29 18 40 -3 11 6 35 19 55 21 30 23 39 12
53 -8 10 -5 9 10 -4 23 -19 23 -19 45 6 43 51 131 84 247 94 25 2 74 7 110 10
36 4 79 8 95 9 17 1 35 5 42 9 6 4 14 3 18 -3 4 -6 11 -8 16 -4 21 12 122 18
314 18 110 -1 217 -3 237 -6 22 -3 35 -2 32 3 -3 5 -10 7 -15 4 -5 -4 -9 -1
-9 4 0 6 7 11 15 11 20 0 19 20 -2 35 -12 9 -17 29 -19 74 -1 42 -7 68 -19 81
-16 18 -16 20 -1 35 14 15 16 15 16 1 0 -18 20 -57 35 -68 6 -5 5 -8 -2 -8
-21 0 -15 -34 10 -55 25 -22 24 -22 72 -24 28 -1 38 -7 52 -33 9 -18 16 -39
15 -45 -2 -9 10 -13 36 -13 23 0 42 5 45 13 6 16 0 145 -8 157 -3 6 -3 10 2
10 4 0 9 12 10 28 0 15 3 51 5 80 3 29 0 55 -4 58 -5 4 -7 12 -4 20 3 9 -2 14
-14 14 -25 0 -25 -12 0 -28 11 -6 17 -17 15 -24 -4 -11 -9 -48 -17 -115 -1
-14 -12 -16 -45 -7 -31 8 -40 57 -17 92 14 22 14 24 2 14 -13 -10 -17 -10 -22
0 -4 9 -5 8 -3 -2 1 -8 -18 -34 -42 -57 -36 -35 -49 -41 -70 -36 -36 8 -36 8
-40 70 -1 6 -10 9 -22 6 -15 -4 -22 0 -26 16 -3 11 -8 22 -12 22 -3 1 -15 3
-27 4 -48 5 -133 85 -126 118 1 4 -2 7 -8 7 -5 0 -10 -2 -10 -5 0 -13 51 -85
70 -98 22 -15 17 -27 -12 -27 -10 0 -18 7 -18 15 0 8 -7 15 -16 15 -8 0 -13 4
-10 9 3 5 -4 11 -17 15 -13 4 -18 9 -12 13 16 12 11 38 -5 35 -8 -2 -23 -11
-32 -19 -10 -9 -18 -11 -18 -6 0 6 7 16 15 23 8 7 12 22 9 38 -7 38 9 60 30
43 14 -11 16 -11 17 5 2 37 8 77 13 90 3 7 1 16 -4 19 -6 4 -10 15 -10 27 0
16 -3 18 -14 9 -11 -9 -12 -6 -8 14 5 27 -12 55 -34 55 -7 0 -35 -21 -61 -47
-26 -26 -40 -41 -30 -33 16 12 20 12 27 0 5 -8 4 -22 -2 -34 -24 -45 -81 -126
-89 -126 -13 0 12 62 39 98 13 17 20 32 14 32 -5 0 -13 -8 -17 -17 -12 -32
-34 36 -23 72 15 47 17 90 4 106 -13 17 -36 23 -36 9z m702 -665 c4 -39 -7
-49 -14 -12 -4 21 0 47 7 47 1 0 5 -16 7 -35z m-7 -43 c9 -6 11 -15 6 -38 -2
-12 -31 18 -31 32 0 15 9 18 25 6z m-1391 -117 c0 -17 -6 -40 -13 -53 -10 -18
-9 -25 4 -38 20 -20 19 -23 -5 -21 -12 1 -20 8 -20 19 0 13 -8 16 -31 15 -35
-2 -45 17 -29 58 7 18 14 22 31 18 26 -7 51 20 41 45 -5 15 -4 15 9 2 8 -8 14
-29 13 -45z"/>
<path d="M11995 4371 c-3 -5 -17 -8 -31 -5 -48 9 -71 -38 -40 -79 12 -15 18
-17 36 -7 12 6 31 13 43 15 11 3 27 11 34 18 11 11 10 18 -11 40 -14 15 -27
23 -31 18z"/>
<path d="M11533 4334 c-3 -8 -1 -20 6 -27 8 -8 11 -7 11 7 0 9 5 14 10 11 6
-3 10 -2 10 3 0 17 -31 22 -37 6z"/>
<path d="M11818 4300 c-7 -11 -17 -20 -22 -20 -5 0 -21 -10 -34 -22 -14 -13
-22 -17 -17 -9 5 9 4 12 -3 7 -7 -4 -12 -14 -12 -22 0 -12 -10 -15 -47 -13
-41 3 -47 0 -55 -21 -15 -41 -5 -47 79 -45 81 1 122 15 156 52 16 19 16 21 -2
37 -12 11 -18 28 -16 46 3 35 -9 39 -27 10z"/>
<path d="M12040 4300 c0 -5 5 -10 11 -10 5 0 7 5 4 10 -3 6 -8 10 -11 10 -2 0
-4 -4 -4 -10z"/>
<path d="M11507 4204 c-11 -11 3 -24 18 -17 9 3 15 -1 15 -11 0 -18 -13 -20
-40 -6 -15 8 -22 6 -34 -11 -8 -12 -12 -28 -9 -35 5 -13 -5 -17 -37 -15 -10 0
-11 -1 -2 -5 6 -3 10 -10 6 -15 -3 -5 3 -7 13 -6 61 12 118 66 109 103 -6 23
-25 31 -39 18z"/>
<path d="M13638 4166 c-20 -15 -8 -39 21 -41 15 -1 18 2 12 14 -5 9 -10 21
-12 28 -3 9 -8 9 -21 -1z"/>
<path d="M11586 4158 c3 -4 9 -8 15 -8 5 0 9 4 9 8 0 5 -7 9 -15 9 -8 0 -12
-4 -9 -9z"/>
<path d="M15467 4011 c6 -23 38 -54 58 -57 8 -1 15 -1 15 0 0 5 -45 52 -62 64
-14 11 -16 10 -11 -7z"/>
<path d="M15586 3857 c1 -23 -4 -56 -11 -74 -7 -17 -11 -33 -9 -36 7 -6 -28
-78 -48 -101 -20 -22 -17 -31 7 -22 9 3 14 10 10 16 -3 5 3 15 15 22 11 7 20
21 20 31 0 11 9 30 20 44 11 14 20 21 20 15 0 -6 7 -9 15 -6 8 3 22 -1 30 -10
9 -9 13 -16 8 -16 -4 0 3 -7 15 -16 17 -11 22 -24 20 -49 -2 -29 -9 -37 -50
-59 -26 -14 -59 -26 -73 -26 l-25 0 22 -35 c21 -32 26 -34 58 -29 37 7 33 -11
-5 -18 -12 -2 -19 -10 -17 -21 2 -9 -2 -17 -8 -17 -9 0 -14 14 -11 33 0 4 -6
7 -14 7 -8 0 -15 -3 -15 -8 0 -10 -54 -33 -85 -37 -14 -1 -25 2 -25 8 0 5 -5
5 -13 -2 -8 -6 -17 -8 -20 -4 -6 6 -11 -11 -8 -29 0 -5 -6 -8 -14 -8 -9 0 -29
-16 -46 -35 -37 -41 -51 -43 -73 -10 -15 22 -15 25 1 34 10 5 16 11 13 13 -42
28 -72 36 -102 28 -18 -5 -42 -9 -53 -9 -11 0 -80 0 -153 0 -74 -1 -137 1
-142 4 -4 2 -24 -4 -45 -14 -24 -11 -33 -21 -26 -25 7 -4 19 -2 27 5 11 9 18
9 26 1 16 -16 19 -72 5 -69 -6 1 -11 -4 -12 -12 0 -8 -7 -16 -15 -18 -11 -3
-12 -2 -3 4 8 6 -1 9 -26 8 -22 0 -37 -4 -34 -10 2 -5 60 -36 128 -68 111 -53
147 -66 223 -83 12 -2 44 -12 70 -22 54 -20 83 -20 133 -4 33 12 173 10 227
-3 55 -13 66 -14 105 -15 44 -2 67 2 107 18 63 25 75 30 82 28 7 -1 58 51 59
62 0 4 3 16 5 27 15 66 11 95 -23 166 -20 41 -41 81 -48 89 -21 24 -55 89 -55
104 0 8 -3 16 -7 18 -8 3 -24 33 -105 188 -49 94 -54 99 -52 47z m54 -77 c0
-5 -7 -10 -16 -10 -8 0 -12 5 -9 10 3 6 10 10 16 10 5 0 9 -4 9 -10z"/>
<path d="M13500 3743 c-40 -7 -44 -19 -5 -15 19 2 35 8 35 13 0 5 -1 8 -2 8
-2 -1 -14 -4 -28 -6z"/>
<path d="M14287 3683 c-2 -4 -1 -17 4 -28 4 -11 8 -14 8 -7 1 14 31 17 31 2 0
-5 8 -6 17 -3 13 5 15 2 10 -11 -4 -10 -3 -15 3 -11 6 3 10 12 10 20 0 8 8 19
18 24 13 8 14 11 2 11 -8 1 -34 4 -57 6 -23 3 -43 1 -46 -3z"/>
<path d="M15443 3553 c-29 -30 -53 -60 -53 -65 0 -6 9 1 21 16 11 14 25 23 30
20 6 -3 13 3 16 15 3 12 9 21 14 21 9 0 33 39 27 45 -2 2 -27 -22 -55 -52z"/>
<path d="M14454 3521 c3 -47 80 -134 101 -113 3 3 18 8 33 10 34 4 35 6 27 32
-4 12 -10 19 -13 15 -3 -3 -11 4 -18 16 -6 12 -25 27 -42 34 -25 11 -35 11
-57 -1 -24 -12 -26 -12 -21 1 3 8 1 17 -3 19 -5 3 -8 -3 -7 -13z"/>
<path d="M15340 3475 c-7 -8 -22 -15 -34 -15 -20 -1 -20 -2 4 -15 23 -13 26
-12 34 10 5 13 17 26 25 28 14 4 14 5 0 6 -9 0 -22 -6 -29 -14z"/>
<path d="M14650 3361 c0 -12 46 -33 63 -29 10 2 1 9 -23 20 -22 9 -40 13 -40
9z"/>
<path d="M12030 3205 c-7 -8 -28 -15 -46 -15 -32 0 -33 -1 -22 -20 13 -21 64
-40 106 -40 18 0 22 6 22 30 0 17 -4 30 -9 30 -5 0 -16 7 -24 15 -13 13 -16
13 -27 0z"/>
</g>
</svg>
